<svg width="90" height="22" viewBox="0 0 90 22" fill="none" xmlns="http://www.w3.org/2000/svg">
<g id="Frame" clip-path="url(#clip0_776_8625)">
<g id="Group">
<path id="Vector" d="M82.2768 13.0079L81.3782 12.2024L81.3639 12.188C81.0989 11.9517 81.0739 11.5436 81.3137 11.2751C81.55 11.0101 81.9546 10.9887 82.2195 11.2214L83.154 12.0412C83.4261 12.2775 83.4511 12.6893 83.2148 12.9614C82.9785 13.2335 82.5668 13.2585 82.2947 13.0222L82.2911 13.0186L82.2768 13.0079Z" fill="#474747" fill-opacity="0.51"/>
<path id="Vector_2" d="M79.5122 10.679L77.5538 9.2791L77.5216 9.25404C77.2423 9.05355 77.1779 8.66689 77.3784 8.38763C77.5753 8.10838 77.962 8.04393 78.2412 8.24084L80.2819 9.66935C80.5684 9.86984 80.64 10.2637 80.4395 10.5537C80.239 10.8401 79.8451 10.9117 79.5552 10.7112L79.5516 10.7076L79.5122 10.679Z" fill="#474747" fill-opacity="0.51"/>
<path id="Vector_3" d="M75.5063 8.02065L73.3761 6.90721L73.3367 6.88572C73.0431 6.73178 72.9322 6.37017 73.0825 6.08018C73.2329 5.79018 73.5909 5.67561 73.8845 5.82598L76.1042 6.95733C76.405 7.11128 76.5231 7.47646 76.3691 7.7772C76.2152 8.07793 75.85 8.19608 75.5493 8.04213L75.5457 8.03855L75.5063 8.02065Z" fill="#474747" fill-opacity="0.51"/>
<path id="Vector_4" d="M71.1674 5.95855L68.894 5.18165L68.8511 5.16733C68.5503 5.0635 68.3928 4.7377 68.493 4.44054C68.5933 4.14339 68.9191 3.98228 69.2162 4.08252L71.5828 4.86659C71.8907 4.96684 72.0553 5.29979 71.9551 5.60769C71.8548 5.91559 71.5219 6.08028 71.214 5.98003L71.2068 5.97645L71.1674 5.95855Z" fill="#474747" fill-opacity="0.51"/>
<path id="Vector_5" d="M66.567 4.58343L65.3855 4.36862C64.9917 4.29343 64.5979 4.22541 64.2004 4.17529C63.8997 4.13948 63.6849 3.86381 63.7207 3.56307C63.7565 3.26233 64.0286 3.0511 64.3293 3.08332H64.3365C64.7482 3.12987 65.1599 3.19789 65.5681 3.27307L66.7961 3.48431C67.1004 3.53801 67.3081 3.82801 67.2544 4.13232C67.2007 4.43664 66.9107 4.64429 66.6063 4.59059H66.6028L66.567 4.58343Z" fill="#474747" fill-opacity="0.51"/>
<path id="Vector_6" d="M61.7973 3.95333L59.3842 3.89247H59.352C59.062 3.88531 58.8328 3.64543 58.84 3.35186C58.8472 3.06186 59.087 2.83631 59.3735 2.83989L61.8581 2.87927C62.1553 2.88285 62.3916 3.12988 62.388 3.42704C62.3844 3.7242 62.1374 3.96049 61.8402 3.95691H61.8366L61.7973 3.95333Z" fill="#474747" fill-opacity="0.51"/>
<path id="Vector_7" d="M56.9691 3.98041L54.5596 4.21671L54.531 4.22029C54.2553 4.24893 54.0083 4.04486 53.9832 3.76918C53.9546 3.4935 54.155 3.25005 54.4271 3.22141L56.8939 2.95647C57.1767 2.92425 57.4309 3.12832 57.4596 3.41116C57.4918 3.694 57.2877 3.94819 57.0049 3.97683H57.0013L56.9691 3.98041Z" fill="#474747" fill-opacity="0.51"/>
<path id="Vector_8" d="M52.1734 4.59701L49.8141 5.12688L49.7818 5.13404C49.5241 5.19132 49.2699 5.03021 49.209 4.77244C49.1517 4.51824 49.3093 4.26405 49.567 4.20319L51.9801 3.63393C52.245 3.57307 52.5064 3.73418 52.5708 3.99911C52.6317 4.26405 52.4706 4.5254 52.2056 4.58985H52.2021L52.1734 4.59701Z" fill="#474747" fill-opacity="0.51"/>
<path id="Vector_9" d="M47.5022 5.8208L45.261 6.69795L45.2216 6.71227C44.9889 6.80178 44.7239 6.68721 44.6344 6.4545C44.5449 6.22178 44.6559 5.96043 44.8886 5.86734L47.1979 4.94007C47.4377 4.8434 47.7062 4.96155 47.8029 5.19784C47.8996 5.43772 47.7814 5.70623 47.5451 5.8029H47.5416L47.5022 5.8208Z" fill="#474747" fill-opacity="0.51"/>
<path id="Vector_10" d="M43.127 7.79063C42.4396 8.1952 41.7809 8.64272 41.1722 9.14753C40.9896 9.2979 40.7175 9.27284 40.5672 9.09025C40.4168 8.90766 40.4419 8.63914 40.6209 8.48519C41.2653 7.941 41.9563 7.46125 42.6723 7.03163C42.88 6.90632 43.1521 6.97434 43.281 7.182C43.4099 7.38965 43.3383 7.66174 43.1306 7.79063H43.127Z" fill="#474747" fill-opacity="0.51"/>
<path id="Vector_11" d="M39.5316 10.8271C39.0626 11.4465 38.6831 12.1267 38.4468 12.8571C38.3788 13.0719 38.1497 13.1865 37.9349 13.1184C37.7236 13.0504 37.6055 12.8249 37.6699 12.6101C37.9277 11.7794 38.3502 11.0097 38.8586 10.3259C38.9982 10.1397 39.2595 10.1003 39.4457 10.24C39.6319 10.3796 39.6713 10.6409 39.5316 10.8271Z" fill="#474747" fill-opacity="0.51"/>
<path id="Vector_12" d="M38.155 15.1339C38.1836 15.9108 38.3233 16.6877 38.5631 17.4324C38.6276 17.6329 38.5166 17.8477 38.3161 17.9157C38.1156 17.9802 37.9008 17.8728 37.8364 17.6723C37.5678 16.8631 37.4067 16.0218 37.3638 15.1661C37.353 14.9477 37.5213 14.7651 37.7397 14.7544C37.9581 14.7437 38.1407 14.9119 38.1514 15.1303L38.155 15.1339Z" fill="#474747" fill-opacity="0.51"/>
<path id="Vector_13" d="M39.5976 19.5156C40.0451 20.1386 40.6108 20.6828 41.2803 21.005C41.4593 21.0909 41.5345 21.3057 41.4486 21.4812C41.3626 21.6602 41.1514 21.7354 40.9724 21.6494C40.1597 21.2664 39.5081 20.6398 38.9961 19.9488C38.8744 19.7842 38.9102 19.5514 39.0749 19.4297C39.2396 19.308 39.4723 19.3438 39.594 19.5085L39.5976 19.5156Z" fill="#474747" fill-opacity="0.51"/>
<path id="Vector_14" d="M43.4776 21.3067C44.2402 21.2136 44.9956 20.9701 45.7009 20.63C45.8656 20.5477 46.0661 20.6193 46.1484 20.784C46.2308 20.9486 46.1592 21.1491 45.9981 21.2315C45.2391 21.6074 44.4228 21.8831 43.5671 21.9976C43.3774 22.0227 43.2019 21.8902 43.1769 21.7005C43.1518 21.5107 43.2843 21.3353 43.474 21.3102L43.4776 21.3067Z" fill="#474747" fill-opacity="0.51"/>
<path id="Vector_15" d="M47.6416 19.311C48.218 18.7812 48.7121 18.1618 49.0307 17.4672V17.4636C49.1023 17.3061 49.2849 17.2381 49.4425 17.3097C49.5964 17.3813 49.668 17.5639 49.5964 17.7178C49.242 18.5162 48.6978 19.2 48.0784 19.78C47.9495 19.9018 47.7454 19.8946 47.6237 19.7657C47.502 19.6404 47.5091 19.4363 47.6416 19.311Z" fill="#474747" fill-opacity="0.51"/>
<path id="Vector_16" d="M49.2953 15.2515C49.1664 14.489 48.8693 13.7479 48.4969 13.0497C48.4218 12.9101 48.4755 12.7382 48.6151 12.6631C48.7547 12.5879 48.9266 12.6416 49.0017 12.7776C49.4027 13.5116 49.7321 14.3028 49.8825 15.1513C49.9111 15.3124 49.8037 15.4699 49.6426 15.4986C49.4815 15.5272 49.324 15.4198 49.2953 15.2587V15.2515Z" fill="#474747" fill-opacity="0.51"/>
<path id="Vector_17" d="M47.1731 11.0549C46.6755 10.4248 46.1313 9.83046 45.5549 9.26121C45.4511 9.16097 45.4511 8.9927 45.5513 8.88887C45.6516 8.78504 45.8162 8.78504 45.9201 8.88529C46.5108 9.45812 47.0765 10.0668 47.5992 10.7112C47.6958 10.8293 47.6779 11.0012 47.5598 11.0979C47.4417 11.1909 47.2698 11.173 47.1731 11.0549Z" fill="#474747" fill-opacity="0.51"/>
<path id="Vector_18" d="M43.7501 7.64343L41.8096 6.1827L41.7953 6.17196C41.6914 6.0932 41.67 5.94283 41.7487 5.839C41.8275 5.73518 41.9743 5.71369 42.0817 5.78888L44.0687 7.25319C44.1797 7.33553 44.2048 7.49306 44.1224 7.60405C44.0401 7.71503 43.8825 7.74009 43.7716 7.65775H43.768L43.7501 7.64343Z" fill="#474747" fill-opacity="0.51"/>
<path id="Vector_19" d="M39.762 4.87608L37.6247 3.71609L37.6103 3.70893C37.5065 3.65165 37.4671 3.52276 37.5244 3.41893C37.5817 3.31511 37.7106 3.27572 37.8144 3.33301L39.9912 4.48583C40.1022 4.54312 40.1451 4.68275 40.0843 4.79373C40.027 4.90472 39.8874 4.94768 39.7764 4.88682H39.7728L39.762 4.87608Z" fill="#474747" fill-opacity="0.51"/>
<path id="Vector_20" d="M35.4076 2.70606L33.127 1.85397L33.1127 1.85039C33.0125 1.81459 32.9623 1.7036 33.0017 1.60693C33.0375 1.51027 33.1485 1.46015 33.2452 1.49595L35.5616 2.33372C35.6654 2.3731 35.7227 2.48767 35.6833 2.59149C35.6439 2.69532 35.5294 2.7526 35.4255 2.71322H35.422L35.4076 2.70606Z" fill="#474747" fill-opacity="0.51"/>
<path id="Vector_21" d="M30.7887 1.17373L28.4043 0.672496L28.39 0.668916C28.3005 0.651015 28.2432 0.56151 28.2611 0.472004C28.279 0.382499 28.3685 0.325216 28.458 0.343117L30.8711 0.826445C30.9677 0.844346 31.0322 0.941012 31.0107 1.03768C30.9928 1.13434 30.8961 1.19879 30.7995 1.17731L30.7887 1.17373Z" fill="#474747" fill-opacity="0.51"/>
<path id="Vector_22" d="M25.9913 0.368912L23.5568 0.282987L23.5424 0.282987C23.4637 0.279407 23.4028 0.214963 23.4064 0.136198C23.41 0.0574335 23.4744 -0.00343002 23.5532 0.000150188L26.0128 0.064594C26.0987 0.0681742 26.1667 0.136198 26.1632 0.222123C26.1596 0.308048 26.0916 0.376072 26.0056 0.372492L25.9913 0.368912Z" fill="#474747" fill-opacity="0.51"/>
<path id="Vector_23" d="M21.1264 0.426424C20.3173 0.512349 19.5153 0.641237 18.7205 0.809507C18.6561 0.823827 18.5916 0.780865 18.5809 0.716421C18.5666 0.651977 18.6095 0.591114 18.6704 0.576793C19.4724 0.401363 20.2815 0.265315 21.0978 0.168649C21.1694 0.161489 21.2338 0.211612 21.2446 0.283216C21.2517 0.35124 21.2016 0.415684 21.1264 0.426424Z" fill="#474747" fill-opacity="0.51"/>
<path id="Vector_24" d="M16.3615 1.42218L14.0702 2.25637L14.063 2.25995C14.0129 2.27785 13.9592 2.25279 13.9413 2.20267C13.9234 2.15255 13.9485 2.09884 13.9986 2.08094L16.3007 1.21811C16.3544 1.19663 16.4188 1.22527 16.4367 1.27897C16.4546 1.33268 16.4296 1.39712 16.3759 1.41502L16.3615 1.42218Z" fill="#474747" fill-opacity="0.51"/>
<path id="Vector_25" d="M11.8615 3.29471L9.74559 4.51556L9.74201 4.51914C9.70979 4.53704 9.66324 4.5263 9.64534 4.49408C9.62744 4.46186 9.63818 4.4189 9.6704 4.39741L11.7863 3.1515C11.8257 3.13002 11.8758 3.14076 11.9009 3.18014C11.9224 3.21953 11.9116 3.26965 11.8722 3.29471H11.8615Z" fill="#474747" fill-opacity="0.51"/>
<path id="Vector_26" d="M7.73007 5.89235L5.81824 7.41752L5.81466 7.4211C5.79318 7.439 5.76454 7.43542 5.75022 7.41394C5.73589 7.39245 5.73589 7.36381 5.75738 7.34949L7.65847 5.79926C7.68353 5.77778 7.71933 5.78136 7.74081 5.80642C7.76229 5.83148 7.75871 5.86729 7.73365 5.88877L7.73007 5.89235Z" fill="#474747" fill-opacity="0.51"/>
<path id="Vector_27" d="M4.01353 9.07291L2.32009 10.8415C2.31293 10.8523 2.29861 10.8523 2.28787 10.8451C2.27713 10.838 2.27713 10.8201 2.28429 10.8129L3.95983 9.02637C3.97415 9.01204 3.99563 9.01204 4.00995 9.02637C4.02785 9.03711 4.02785 9.05859 4.01353 9.07291Z" fill="#474747" fill-opacity="0.51"/>
<path id="Vector_28" d="M0.744684 12.7206L0.00716042 13.698C0.00716042 13.7015 0.00358021 13.7015 0 13.698C0 13.698 0 13.6944 0 13.6908L0.726783 12.7062C0.730363 12.7027 0.737523 12.6991 0.741103 12.7027C0.748264 12.7062 0.748264 12.7134 0.744684 12.7206Z" fill="#474747" fill-opacity="0.51"/>
<g id="Group_2">
<path id="Vector_29" d="M89.2119 19.9875L84.1495 5.80273L82.1159 12.0681L75.668 13.4071L89.2119 19.9875Z" fill="#474747" fill-opacity="0.51"/>
</g>
</g>
</g>
<defs>
<clipPath id="clip0_776_8625">
<rect width="90" height="22" fill="white"/>
</clipPath>
</defs>
</svg>
