<svg width="90" height="22" viewBox="0 0 90 22" fill="none" xmlns="http://www.w3.org/2000/svg">
<g id="Frame" clip-path="url(#clip0_776_8658)">
<g id="Group">
<path id="Vector" d="M7.72314 13.0059L8.62179 12.2004L8.63612 12.1861C8.90106 11.9498 8.92613 11.5416 8.68627 11.2731C8.44998 11.0082 8.04542 10.9867 7.78047 11.2194L6.84602 12.0392C6.57392 12.2755 6.54884 12.6872 6.78513 12.9594C7.02142 13.2315 7.43314 13.2565 7.70524 13.0202L7.70882 13.0167L7.72314 13.0059Z" fill="#474747" fill-opacity="0.51"/>
<path id="Vector_2" d="M10.4877 10.6789L12.4462 9.2791L12.4784 9.25404C12.7576 9.05355 12.8221 8.66689 12.6216 8.38763C12.4247 8.10837 12.038 8.04391 11.7588 8.24082L9.71802 9.66927C9.4316 9.86975 9.35999 10.2636 9.56048 10.5536C9.76096 10.84 10.1548 10.9116 10.4448 10.7111L10.4484 10.7075L10.4877 10.6789Z" fill="#474747" fill-opacity="0.51"/>
<path id="Vector_3" d="M14.4936 8.02058L16.6239 6.9072L16.6633 6.88572C16.9568 6.73177 17.0678 6.37018 16.9175 6.08018C16.7671 5.79017 16.4091 5.6756 16.1155 5.82596L13.8958 6.95725C13.595 7.11119 13.4769 7.47636 13.6308 7.77711C13.7847 8.07785 14.1499 8.196 14.4507 8.04206L14.4542 8.03848L14.4936 8.02058Z" fill="#474747" fill-opacity="0.51"/>
<path id="Vector_4" d="M18.8325 5.95848L21.106 5.18164L21.1489 5.16732C21.4497 5.0635 21.6072 4.7377 21.507 4.44054C21.4067 4.14338 21.0809 3.98227 20.7838 4.0825L18.4172 4.86651C18.1093 4.96674 17.9446 5.2997 18.0449 5.6076C18.1451 5.9155 18.4781 6.0802 18.786 5.97996L18.7931 5.97638L18.8325 5.95848Z" fill="#474747" fill-opacity="0.51"/>
<path id="Vector_5" d="M23.433 4.58335L24.6145 4.36857C25.0083 4.2934 25.4021 4.22539 25.7995 4.17527C26.1003 4.13948 26.3151 3.86381 26.2793 3.56307C26.2435 3.26233 25.9714 3.05109 25.6707 3.08331L25.6635 3.08331C25.2518 3.12984 24.8401 3.19785 24.4319 3.27302L23.2039 3.48422C22.8996 3.53792 22.6919 3.82791 22.7456 4.13223C22.7993 4.43655 23.0893 4.64421 23.3936 4.59051L23.3972 4.59051L23.433 4.58335Z" fill="#474747" fill-opacity="0.51"/>
<path id="Vector_6" d="M28.2027 3.95325L30.6158 3.89245L30.648 3.89245C30.938 3.8853 31.1671 3.64543 31.16 3.35186C31.1528 3.06186 30.913 2.8363 30.6265 2.83987L28.1419 2.87919C27.8447 2.88276 27.6084 3.12979 27.612 3.42694C27.6156 3.7241 27.8626 3.9604 28.1598 3.95683L28.1633 3.95683L28.2027 3.95325Z" fill="#474747" fill-opacity="0.51"/>
<path id="Vector_7" d="M33.0309 3.98228L35.4404 4.21864L35.469 4.22222C35.7447 4.25087 35.9917 4.04681 36.0168 3.77113C36.0454 3.49546 35.8449 3.252 35.5729 3.22335L33.1061 2.95835C32.8233 2.92612 32.5691 3.13018 32.5404 3.41302C32.5082 3.69585 32.7122 3.95005 32.9951 3.9787L32.9987 3.9787L33.0309 3.98228Z" fill="#474747" fill-opacity="0.51"/>
<path id="Vector_8" d="M37.8266 4.59693L40.1859 5.12686L40.2181 5.13402C40.4759 5.19131 40.7301 5.03021 40.791 4.77244C40.8482 4.51825 40.6907 4.26405 40.433 4.20318L38.0199 3.63386C37.755 3.57299 37.4936 3.73409 37.4292 3.99902C37.3683 4.26396 37.5294 4.52532 37.7943 4.58977L37.7979 4.58977L37.8266 4.59693Z" fill="#474747" fill-opacity="0.51"/>
<path id="Vector_9" d="M42.4978 5.82268L44.739 6.69989L44.7784 6.71421C45.0111 6.80372 45.276 6.68916 45.3655 6.45645C45.455 6.22374 45.3441 5.96238 45.1114 5.86929L42.8021 4.94195C42.5623 4.84528 42.2938 4.96342 42.1971 5.19971C42.1004 5.43958 42.2185 5.7081 42.4548 5.80477L42.4584 5.80477L42.4978 5.82268Z" fill="#474747" fill-opacity="0.51"/>
<path id="Vector_10" d="M46.873 7.79056C47.5603 8.19514 48.2191 8.64269 48.8277 9.14751C49.0103 9.29789 49.2824 9.27283 49.4328 9.09024C49.5831 8.90766 49.5581 8.63914 49.3791 8.48519C48.7347 7.94098 48.0437 7.46121 47.3277 7.03157C47.12 6.90625 46.8479 6.97427 46.719 7.18192C46.5901 7.38957 46.6617 7.66167 46.8694 7.79056L46.873 7.79056Z" fill="#474747" fill-opacity="0.51"/>
<path id="Vector_11" d="M50.4664 10.8271C50.9354 11.4464 51.3149 12.1267 51.5511 12.8571C51.6192 13.0719 51.8483 13.1865 52.0631 13.1184C52.2743 13.0504 52.3925 12.8249 52.3281 12.6101C52.0703 11.7794 51.6479 11.0097 51.1395 10.3258C50.9999 10.1397 50.7385 10.1003 50.5523 10.2399C50.3662 10.3795 50.3268 10.6409 50.4664 10.8271Z" fill="#474747" fill-opacity="0.51"/>
<path id="Vector_12" d="M51.845 15.1339C51.8163 15.9108 51.6767 16.6877 51.4368 17.4324C51.3723 17.6328 51.4833 17.8477 51.6838 17.9157C51.8843 17.9801 52.0991 17.8727 52.1636 17.6723C52.4321 16.8631 52.5932 16.0218 52.6362 15.1661C52.647 14.9477 52.4787 14.7651 52.2603 14.7544C52.0419 14.7436 51.8593 14.9119 51.8486 15.1303L51.845 15.1339Z" fill="#474747" fill-opacity="0.51"/>
<path id="Vector_13" d="M50.4024 19.5176C49.9549 20.1405 49.3892 20.6847 48.7197 21.0069C48.5406 21.0928 48.4655 21.3076 48.5514 21.4831C48.6373 21.6621 48.8485 21.7373 49.0275 21.6513C49.8403 21.2683 50.4919 20.6418 51.0039 19.9508C51.1256 19.7861 51.0898 19.5534 50.9251 19.4317C50.7604 19.3099 50.5277 19.3457 50.406 19.5104L50.4024 19.5176Z" fill="#474747" fill-opacity="0.51"/>
<path id="Vector_14" d="M46.5204 21.3067C45.7578 21.2135 45.0024 20.9701 44.2971 20.6299C44.1324 20.5476 43.9319 20.6192 43.8496 20.7839C43.7672 20.9486 43.8388 21.1491 44 21.2314C44.7589 21.6073 45.5752 21.883 46.4309 21.9976C46.6206 22.0227 46.7961 21.8902 46.8211 21.7005C46.8462 21.5107 46.7137 21.3353 46.524 21.3102L46.5204 21.3067Z" fill="#474747" fill-opacity="0.51"/>
<path id="Vector_15" d="M42.3583 19.313C41.7819 18.7831 41.2879 18.1637 40.9693 17.4691L40.9693 17.4656C40.8977 17.308 40.7151 17.24 40.5575 17.3116C40.4036 17.3832 40.332 17.5658 40.4036 17.7197C40.758 18.5181 41.3022 19.202 41.9215 19.782C42.0504 19.9037 42.2545 19.8966 42.3762 19.7677C42.498 19.6424 42.4908 19.4383 42.3583 19.313Z" fill="#474747" fill-opacity="0.51"/>
<path id="Vector_16" d="M40.7046 15.2515C40.8335 14.4889 41.1307 13.7478 41.5031 13.0497C41.5782 12.9101 41.5245 12.7382 41.3849 12.6631C41.2453 12.5879 41.0734 12.6416 40.9983 12.7776C40.5973 13.5115 40.2678 14.3028 40.1175 15.1513C40.0888 15.3124 40.1962 15.4699 40.3573 15.4985C40.5184 15.5272 40.676 15.4198 40.7046 15.2587L40.7046 15.2515Z" fill="#474747" fill-opacity="0.51"/>
<path id="Vector_17" d="M42.8268 11.0568C43.3245 10.4267 43.8687 9.8324 44.4451 9.26316C44.5489 9.16292 44.5489 8.99465 44.4487 8.89082C44.3484 8.78699 44.1838 8.78699 44.0799 8.88723C43.4892 9.46005 42.9235 10.0687 42.4008 10.7131C42.3041 10.8312 42.322 11.0031 42.4401 11.0998C42.5583 11.1928 42.7301 11.1749 42.8268 11.0568Z" fill="#474747" fill-opacity="0.51"/>
<path id="Vector_18" d="M46.2499 7.64533L48.1904 6.18465L48.2047 6.17391C48.3085 6.09515 48.33 5.94478 48.2513 5.84095C48.1725 5.73713 48.0257 5.71564 47.9183 5.79082L45.9313 7.25507C45.8203 7.33742 45.7952 7.49494 45.8775 7.60593C45.9599 7.71692 46.1174 7.74199 46.2284 7.65965L46.232 7.65965L46.2499 7.64533Z" fill="#474747" fill-opacity="0.51"/>
<path id="Vector_19" d="M50.2379 4.87797L52.3753 3.71804L52.3896 3.71088C52.4935 3.6536 52.5329 3.52471 52.4756 3.42088C52.4183 3.31706 52.2894 3.27767 52.1856 3.33495L50.0088 4.48772C49.8978 4.545 49.8548 4.68463 49.9157 4.79562C49.973 4.9066 50.1126 4.94957 50.2236 4.88871L50.2272 4.88871L50.2379 4.87797Z" fill="#474747" fill-opacity="0.51"/>
<path id="Vector_20" d="M54.5923 2.70795L56.873 1.85592L56.8873 1.85234C56.9875 1.81654 57.0376 1.70555 56.9983 1.60889C56.9625 1.51222 56.8515 1.46209 56.7548 1.49789L54.4384 2.3356C54.3346 2.37498 54.2773 2.48955 54.3167 2.59337C54.356 2.6972 54.4706 2.75449 54.5744 2.71511L54.578 2.71511L54.5923 2.70795Z" fill="#474747" fill-opacity="0.51"/>
<path id="Vector_21" d="M59.2113 1.17561L61.5957 0.674445L61.61 0.670865C61.6995 0.652967 61.7568 0.563463 61.7389 0.473957C61.721 0.384452 61.6315 0.327166 61.542 0.345065L59.1289 0.828328C59.0323 0.846226 58.9678 0.94289 58.9893 1.03956C59.0072 1.13622 59.1039 1.20067 59.2005 1.17919L59.2113 1.17561Z" fill="#474747" fill-opacity="0.51"/>
<path id="Vector_22" d="M64.0087 0.370795L66.4432 0.284936L66.4575 0.284936C66.5363 0.281358 66.5972 0.216916 66.5936 0.138151C66.59 0.0593866 66.5256 -0.00147873 66.4468 0.00209936L63.9872 0.066477C63.9013 0.0700549 63.8333 0.138077 63.8368 0.224002C63.8404 0.309927 63.9084 0.377953 63.9944 0.374375L64.0087 0.370795Z" fill="#474747" fill-opacity="0.51"/>
<path id="Vector_23" d="M68.8736 0.428309C69.6827 0.514256 70.4847 0.643165 71.2795 0.811456C71.3439 0.825778 71.4084 0.782818 71.4191 0.718374C71.4334 0.653931 71.3905 0.593066 71.3296 0.578744C70.5276 0.403292 69.7185 0.267222 68.9022 0.170534C68.8306 0.163372 68.7662 0.213493 68.7554 0.285097C68.7483 0.353121 68.7984 0.417566 68.8736 0.428309Z" fill="#474747" fill-opacity="0.51"/>
<path id="Vector_24" d="M73.6385 1.42212L75.9298 2.25637L75.9369 2.25995C75.9871 2.27785 76.0408 2.25279 76.0587 2.20267C76.0766 2.15255 76.0515 2.09884 76.0014 2.08094L73.6993 1.21805C73.6456 1.19656 73.5812 1.2252 73.5633 1.27891C73.5454 1.33261 73.5704 1.39705 73.6241 1.41496L73.6385 1.42212Z" fill="#474747" fill-opacity="0.51"/>
<path id="Vector_25" d="M78.1385 3.29465L80.2544 4.51556L80.258 4.51914C80.2902 4.53704 80.3367 4.5263 80.3546 4.49408C80.3725 4.46186 80.3618 4.4189 80.3296 4.39741L78.2137 3.15144C78.1743 3.12996 78.1242 3.1407 78.0991 3.18008C78.0776 3.21946 78.0884 3.26959 78.1278 3.29465L78.1385 3.29465Z" fill="#474747" fill-opacity="0.51"/>
<path id="Vector_26" d="M82.2699 5.89425L84.1817 7.41947L84.1853 7.42305C84.2068 7.44095 84.2354 7.43737 84.2497 7.41589C84.2641 7.39441 84.2641 7.36577 84.2426 7.35145L82.3415 5.80116C82.3165 5.77968 82.2807 5.78326 82.2592 5.80832C82.2377 5.83338 82.2413 5.86918 82.2663 5.89067L82.2699 5.89425Z" fill="#474747" fill-opacity="0.51"/>
<path id="Vector_27" d="M85.9865 9.07482L87.6799 10.8435C87.687 10.8542 87.7013 10.8542 87.7121 10.8471C87.7228 10.8399 87.7228 10.822 87.7157 10.8148L86.0402 9.02827C86.0259 9.01395 86.0044 9.01395 85.9901 9.02827C85.9722 9.03901 85.9721 9.06049 85.9865 9.07482Z" fill="#474747" fill-opacity="0.51"/>
<path id="Vector_28" d="M89.2553 12.7225L89.9928 13.6999C89.9928 13.7035 89.9964 13.7035 90 13.6999C90 13.6999 90 13.6963 90 13.6927L89.2732 12.7082C89.2696 12.7046 89.2625 12.701 89.2589 12.7046C89.2517 12.7082 89.2517 12.7153 89.2553 12.7225Z" fill="#474747" fill-opacity="0.51"/>
<g id="Group_2">
<path id="Vector_29" d="M0.787722 19.9872L5.85052 5.80251L7.88391 12.0679L14.3318 13.4071L0.787722 19.9872Z" fill="#474747" fill-opacity="0.51"/>
</g>
</g>
</g>
<defs>
<clipPath id="clip0_776_8658">
<rect width="90" height="22" fill="white" transform="matrix(-1 -2.68826e-05 -2.68826e-05 1 90 0.00195312)"/>
</clipPath>
</defs>
</svg>
