<svg width="48" height="49" viewBox="0 0 48 49" fill="none" xmlns="http://www.w3.org/2000/svg">
<path d="M30.4879 45.1245C30.8175 45.0886 30.9411 45.1245 31.0647 45.0886C38.6043 41.1358 43.713 35.5301 45.6494 27.984C46.1438 26.0795 46.0614 24.1031 45.4846 22.1627C44.2898 17.9944 40.2935 15.1196 35.3907 14.8681C32.8363 14.7244 30.3643 14.9759 28.1395 16.1977C27.9747 17.2397 27.8511 18.2818 27.6039 19.2521C27.1919 20.8331 26.2443 22.1268 24.5551 22.9173C23.3191 23.5282 22.0831 23.5282 21.4239 22.9532C20.5587 22.1986 20.5587 21.1925 21.0943 20.366C21.8359 19.2161 22.7423 18.1381 23.6899 17.1319C24.3079 16.4851 25.1319 15.9461 25.8735 15.4071C25.1731 11.3466 20.7647 9.62175 15.4911 11.3106C15.3263 11.8856 15.1615 12.4965 14.9555 13.0714C14.1315 15.1915 12.6072 16.8085 10.1352 17.5632C9.18757 17.8506 8.15757 17.9584 7.33357 17.2038C6.71557 16.6289 6.71557 15.6227 7.37477 14.6166C8.44597 13.0355 10.0528 11.9215 11.7832 10.9513C12.4012 10.6279 13.0192 10.3045 13.6372 10.017C12.8132 3.72858 6.34478 -0.727227 0 1.78815C0.0411999 1.32101 -2.5171e-06 0.925735 0.164797 0.710132C0.370796 0.458594 0.823995 0.314858 1.19479 0.24299C4.69678 -0.331953 7.95157 0.0273861 10.6296 2.25529C12.6484 3.90825 14.008 5.92056 14.9144 8.22033C15.038 8.54373 15.1616 8.86714 15.3264 9.19054C15.3264 9.22648 15.4087 9.26241 15.5735 9.37021C15.9443 9.33428 16.3975 9.33428 16.8507 9.26241C22.3715 8.5078 25.2555 9.80142 27.8099 14.2932C28.3043 14.1494 28.8811 14.0057 29.4167 13.826C32.5891 12.8917 35.7615 12.8199 38.9751 13.7542C44.2075 15.2634 47.5858 19.1802 47.9566 24.1391C48.1626 26.8341 47.627 29.4214 46.5146 31.9367C43.7954 38.0096 39.3459 42.7888 32.6715 45.915C32.3419 46.0947 31.9711 46.2384 31.6415 46.4181C31.6003 46.4541 31.5591 46.5259 31.4355 46.7415C32.8363 47.029 34.1547 46.9212 35.4731 46.8493C36.7503 46.8134 38.0687 46.7056 39.4695 46.6337C39.3459 47.568 38.7691 47.9273 38.0687 48.1429C37.2447 48.3586 36.4207 48.646 35.5967 48.682C33.3719 48.7538 31.1059 48.7898 28.8399 48.682C27.0683 48.5742 26.5739 47.7477 27.3567 46.49C29.0459 43.8309 30.7763 41.1718 32.5067 38.5126C32.7951 38.0814 33.1659 37.7221 33.6191 37.219C34.4019 38.0096 34.0723 38.5845 33.7839 39.1235C32.6303 41.064 31.6003 43.0044 30.4879 45.1245ZM8.56956 16.1258C11.4124 15.8024 13.1839 14.2213 13.3075 11.9934C11.4124 13.0714 9.59956 14.0416 8.56956 16.1258ZM22.4951 21.6956C24.9259 21.1925 26.0795 19.7551 25.8323 17.5632C24.2667 18.713 22.9071 19.7911 22.4951 21.6956Z" fill="#363636"/>
</svg>
