<svg width="32" height="32" viewBox="0 0 32 32" fill="none" xmlns="http://www.w3.org/2000/svg">
<path fill-rule="evenodd" clip-rule="evenodd" d="M8 28.0007H5.33333C4.59733 28.0007 4 27.4033 4 26.6673V18.6673C4 17.9313 4.59733 17.334 5.33333 17.334H8C8.736 17.334 9.33333 17.9313 9.33333 18.6673V26.6673C9.33333 27.4033 8.736 28.0007 8 28.0007Z" stroke="#407729" stroke-width="2" stroke-linecap="round" stroke-linejoin="round"/>
<path d="M17.334 22.6674H20.4447C21.022 22.6674 21.5833 22.4807 22.0447 22.1341L25.266 19.7181C26.07 19.1154 27.1953 19.1954 27.906 19.9061V19.9061C28.6953 20.6954 28.6953 21.9741 27.906 22.7621L25.142 25.5261C24.398 26.2701 23.4487 26.7781 22.4167 26.9847L18.51 27.7661C17.7353 27.9207 16.9367 27.9021 16.17 27.7101L12.6367 26.8274C12.214 26.7207 11.7807 26.6674 11.3447 26.6674H9.33398" stroke="#407729" stroke-width="2" stroke-linecap="round" stroke-linejoin="round"/>
<path d="M17.334 22.6673H19.314C20.43 22.6673 21.334 21.7633 21.334 20.6473V20.2433C21.334 19.3167 20.7033 18.5087 19.8047 18.2847L16.7487 17.5207C16.2513 17.3967 15.742 17.334 15.23 17.334V17.334C13.994 17.334 12.7847 17.6993 11.7567 18.386L9.33398 20.0007" stroke="#407729" stroke-width="2" stroke-linecap="round" stroke-linejoin="round"/>
<path fill-rule="evenodd" clip-rule="evenodd" d="M25.1859 4.6962C27.1406 4.9802 28.2019 6.89087 27.9686 8.49353C27.4966 11.7455 21.6659 13.6162 21.5673 13.6029C21.4686 13.5882 16.4126 10.1349 16.8846 6.8842C17.1179 5.28153 18.6779 3.7522 20.6326 4.0362C21.7499 4.19887 22.4086 4.8282 22.7646 5.35487C23.2579 4.94953 24.0686 4.53353 25.1859 4.6962V4.6962Z" stroke="#407729" stroke-width="2" stroke-linecap="round" stroke-linejoin="round"/>
</svg>
