<svg width="500" height="269" viewBox="0 0 500 269" fill="none" xmlns="http://www.w3.org/2000/svg">
<mask id="path-1-inside-1_776_8721" fill="white">
<path fill-rule="evenodd" clip-rule="evenodd" d="M69.8983 245.042C69.8983 255.916 76.7392 265.919 87.4735 267.658C92.9228 268.541 98.5142 269 104.213 269H475.894C488.779 269 499.225 258.554 499.225 245.669V23.3307C499.225 10.4455 488.779 0 475.894 0H23.6842C10.799 0 0.353455 10.4456 0.353455 23.3307V165.141C0.353455 174.847 1.68494 184.242 4.17526 193.154C6.86386 202.775 16.2203 208.523 26.2102 208.523H44.3097C58.4419 208.523 69.8983 219.979 69.8983 234.111V245.042Z"/>
</mask>
<path fill-rule="evenodd" clip-rule="evenodd" d="M69.8983 245.042C69.8983 255.916 76.7392 265.919 87.4735 267.658C92.9228 268.541 98.5142 269 104.213 269H475.894C488.779 269 499.225 258.554 499.225 245.669V23.3307C499.225 10.4455 488.779 0 475.894 0H23.6842C10.799 0 0.353455 10.4456 0.353455 23.3307V165.141C0.353455 174.847 1.68494 184.242 4.17526 193.154C6.86386 202.775 16.2203 208.523 26.2102 208.523H44.3097C58.4419 208.523 69.8983 219.979 69.8983 234.111V245.042Z" fill="#FFF7EE"/>
<path d="M104.213 268C98.568 268 93.0301 267.545 87.6335 266.671L87.3136 268.645C92.8155 269.537 98.4604 270 104.213 270V268ZM475.894 268H104.213V270H475.894V268ZM498.225 245.669C498.225 258.002 488.227 268 475.894 268V270C489.331 270 500.225 259.107 500.225 245.669H498.225ZM498.225 23.3307V245.669H500.225V23.3307H498.225ZM475.894 1C488.227 1 498.225 10.9978 498.225 23.3307H500.225C500.225 9.89325 489.331 -1 475.894 -1V1ZM23.6842 1H475.894V-1H23.6842V1ZM1.35345 23.3307C1.35345 10.9978 11.3513 1 23.6842 1V-1C10.2467 -1 -0.646545 9.89328 -0.646545 23.3307H1.35345ZM1.35345 165.141V23.3307H-0.646545V165.141H1.35345ZM5.13837 192.885C2.6723 184.06 1.35345 174.755 1.35345 165.141H-0.646545C-0.646545 174.939 0.697601 184.425 3.21216 193.423L5.13837 192.885ZM26.2102 209.523H44.3097V207.523H26.2102V209.523ZM68.8983 234.111V245.042H70.8983V234.111H68.8983ZM44.3097 209.523C57.8896 209.523 68.8983 220.532 68.8983 234.111H70.8983C70.8983 219.427 58.9942 207.523 44.3097 207.523V209.523ZM3.21216 193.423C6.0462 203.565 15.8706 209.523 26.2102 209.523V207.523C16.57 207.523 7.68152 201.986 5.13837 192.885L3.21216 193.423ZM87.6335 266.671C77.4874 265.027 70.8983 255.539 70.8983 245.042H68.8983C68.8983 256.293 75.9909 266.811 87.3136 268.645L87.6335 266.671Z" fill="#DECFBD" mask="url(#path-1-inside-1_776_8721)"/>
</svg>
